HIERARCHY
ROOT Hips
{
	OFFSET 0.00000 0.00000 0.00000
	CHANNELS 6 Xposition Yposition Zposition Zrotation Yrotation Xrotation 
	JOINT LHipJoint
	{
		OFFSET 0 0 0
		CHANNELS 3 Zrotation Yrotation Xrotation
		JOINT LeftHip
		{
			OFFSET 1.57338 -1.94743 0.52196
			CHANNELS 3 Zrotation Yrotation Xrotation
			JOINT LeftKnee
			{
				OFFSET 2.60333 -7.15259 0.00000
				CHANNELS 3 Zrotation Yrotation Xrotation
				JOINT LeftAnkle
				{
					OFFSET 2.77855 -7.63400 0.00000
					CHANNELS 3 Zrotation Yrotation Xrotation
					JOINT LeftToe
					{
						OFFSET 0.19847 -0.54529 2.28466
						CHANNELS 3 Zrotation Yrotation Xrotation
						End Site
						{
							OFFSET 0.00000 -0.00000 1.17993
						}
					}
				}
			}
		}
	}
	JOINT RHipJoint
	{
		OFFSET 0 0 0
		CHANNELS 3 Zrotation Yrotation Xrotation
		JOINT RightHip
		{
			OFFSET -1.61527 -1.94743 0.52196
			CHANNELS 3 Zrotation Yrotation Xrotation
			JOINT RightKnee
			{
				OFFSET -2.53829 -6.97390 0.00000
				CHANNELS 3 Zrotation Yrotation Xrotation
				JOINT RightAnkle
				{
					OFFSET -2.80762 -7.71387 0.00000
					CHANNELS 3 Zrotation Yrotation Xrotation
					JOINT RightToe
					{
						OFFSET -0.30536 -0.83898 2.28801
						CHANNELS 3 Zrotation Yrotation Xrotation
						End Site
						{
							OFFSET -0.00000 -0.00000 1.21323
						}
					}
				}
			}
		}
	}
	JOINT lowerback
	{
		OFFSET 0 0 0
		CHANNELS 3 Zrotation Yrotation Xrotation
		JOINT Chest
		{
			OFFSET -0.04381 1.99497 -0.19778
			CHANNELS 3 Zrotation Yrotation Xrotation
			JOINT Chest2
			{
				OFFSET -0.01959 2.01295 -0.04372
				CHANNELS 3 Zrotation Yrotation Xrotation
				JOINT lowerneck
				{
					OFFSET 0 0 0
					CHANNELS 3 Zrotation Yrotation Xrotation
					JOINT Neck
					{
						OFFSET -0.05459 1.76913 0.09708
						CHANNELS 3 Zrotation Yrotation Xrotation
						JOINT Head
						{
							OFFSET 0.09461 1.77368 -0.11172
							CHANNELS 3 Zrotation Yrotation Xrotation
							End Site
							{
								OFFSET 0.03812 1.78157 -0.04834
							}
						}
					}
				}
				JOINT LeftCollar
				{
					OFFSET 0 0 0
					CHANNELS 3 Zrotation Yrotation Xrotation
					JOINT LeftShoulder
					{
						OFFSET 3.50922 1.24034 -0.28866
CHANNELS 3 Zrotation Xrotation Yrotation
						JOINT LeftElbow
						{
OFFSET 0 -5.401880 0.000000
CHANNELS 3 Zrotation Xrotation Yrotation
							JOINT LeftWrist
							{
OFFSET 0 -3.685590 0.000000
CHANNELS 3 Zrotation Xrotation Yrotation
								JOINT lhand
								{
									OFFSET 0 0 0
CHANNELS 3 Zrotation Xrotation Yrotation
									JOINT LFingers
									{
OFFSET 0 -0.617530 0.000000
CHANNELS 3 Zrotation Xrotation Yrotation
										End Site
										{
OFFSET 0 -0.497870 0.000000
										}
									}
								}
								JOINT LThumb
								{
OFFSET 0 0.000000 0.000000
CHANNELS 3 Zrotation Xrotation Yrotation
									End Site
									{
OFFSET 0 -0.505470 0.505470
									}
								}
							}
						}
					}
				}
				JOINT RightCollar
				{
					OFFSET 0 0 0
					CHANNELS 3 Zrotation Yrotation Xrotation
					JOINT RightShoulder
					{
						OFFSET -2.95373 1.39649 -0.27346
CHANNELS 3 Zrotation Xrotation Yrotation
						JOINT RightElbow
						{
OFFSET 0 -6.106700 -0.000000
CHANNELS 3 Zrotation Xrotation Yrotation
							JOINT RightWrist
							{
OFFSET 0 -3.630520 0.000000
CHANNELS 3 Zrotation Xrotation Yrotation
								JOINT rhand
								{
									OFFSET 0 0 0
CHANNELS 3 Zrotation Xrotation Yrotation
									JOINT RFingers
									{
OFFSET 0 -0.583850 0.000000
CHANNELS 3 Zrotation Xrotation Yrotation
										End Site
										{
OFFSET 0 -0.470710 0.000000
										}
									}
								}
								JOINT RThumb
								{
OFFSET 0 0.000000 0.000000
CHANNELS 3 Zrotation Xrotation Yrotation
									End Site
									{
OFFSET 0 -0.477900 0.477900
									}
								}
							}
						}
					}
				}
			}
		}
	}
}
MOTION
Frames: 11
Frame Time: 0.008333333333333333
0.284400 17.754000 5.202600 15.668800 -45.523000 -1.212100 0.000000 0.000000 0.000000 -28.892800 11.174800 -25.622200 4.672700 13.005500 39.389100 1.727200 9.610400 -29.888700 0.288300 -3.453100 -9.542800 0.000000 0.000000 0.000000 -9.812500 19.106000 -41.001900 -5.657600 -14.088100 43.591600 -0.265600 -6.355000 -14.099900 -0.000500 -0.143300 0.393800 0.546700 -2.908600 22.104500 1.014700 -4.075500 11.780800 1.619600 -2.221600 0.585400 -2.507100 -0.120000 -14.620300 6.119000 0.091700 -7.433300 2.398300 0.073900 0.108200 -0.000000 0.000000 0.000000 -11.630900 -65.172800 -90.323800 48.078700 -52.190600 24.647900 50.585400 23.128700 -18.647100 0.000000 0.000000 0.000000 -7.125000 0.000000 0.000000 25.384400 56.105000 -7.244500 -0.000000 0.000000 0.000000 -20.809600 -46.105900 36.932900 -98.730000 -59.710000 -67.553100 -50.699100 -8.605800 9.849900 0.000000 0.000000 0.000000 7.125000 0.000000 -0.000000 -21.933700 44.133800 -0.493900
0.391755 17.853051 5.206443 12.914247 -41.176880 -1.357919 0.000000 0.000000 0.000000 -26.700587 9.627630 -22.314523 4.478812 12.771645 38.519646 1.601588 8.942916 -28.595223 0.285437 -3.436091 -9.495254 0.000000 0.000000 0.000000 -7.527193 18.707273 -35.064506 -5.118286 -13.515742 41.331348 -0.184613 -9.580479 -16.417023 -0.004967 -0.452691 1.243777 -0.832794 -1.866142 22.104818 2.255609 -2.778676 9.319688 3.532705 -1.566514 -2.002974 -3.673528 -0.827609 -15.281364 5.340782 -0.679676 -5.619595 2.325976 -0.246065 0.850416 0.000000 0.000000 0.000000 -14.746009 -58.822467 -89.394199 50.367095 -53.142325 26.467638 49.364182 15.934463 -19.791494 0.000000 0.000000 0.000000 -7.125000 0.000000 0.000000 24.239811 57.210846 -7.550078 0.000000 0.000000 0.000000 -20.124772 -42.766709 38.461110 -92.552085 -59.975343 -62.210011 -58.749574 17.747697 12.099696 0.000000 0.000000 0.000000 7.125000 0.000000 0.000000 -31.877030 49.495671 3.892859
0.423063 17.968887 5.191271 10.103197 -35.640355 -1.839752 0.000000 0.000000 0.000000 -24.231075 7.402609 -18.562245 4.266251 12.506440 37.548129 1.414939 8.517992 -26.996749 0.341916 -3.757510 -10.395465 0.000000 0.000000 0.000000 -4.431008 18.908634 -27.720403 -4.495556 -12.792170 38.595428 0.106332 -14.809113 -19.848515 -0.003920 -0.401656 1.103611 -1.626197 -1.517668 20.755456 2.545669 -2.370861 8.053838 4.179224 -1.326387 -2.675040 -5.548368 -1.687661 -13.711312 6.547221 -1.534130 -6.675684 3.032790 -0.636794 0.326171 0.000000 0.000000 0.000000 -12.534059 -53.212248 -84.575024 55.685900 -55.045780 30.777525 47.723593 6.797684 -22.594980 0.000000 0.000000 0.000000 -7.125000 0.000000 0.000000 23.021832 60.223433 -8.824821 0.000000 0.000000 0.000000 -19.782358 -40.589307 40.279483 -90.434563 -59.998925 -60.376314 -59.105564 25.413929 10.510564 0.000000 0.000000 0.000000 7.125000 0.000000 0.000000 -31.112176 47.146233 1.818899
0.299592 18.055113 5.209500 6.355939 -27.651565 -1.972647 0.000000 0.000000 0.000000 -20.285964 4.896259 -15.031232 4.120643 12.319224 36.870938 1.250639 6.605973 -24.460455 0.446477 -4.287198 -11.886146 0.000000 0.000000 0.000000 0.556161 17.358572 -20.481362 -4.231585 -12.462408 37.387945 -0.303548 -15.432726 -24.748278 -0.015717 -0.797138 2.190839 -0.576652 -1.503721 17.727657 2.318622 -2.115953 7.611689 3.168498 -1.159638 -1.669410 -5.307016 -1.840770 -14.338985 7.810033 -1.773726 -4.872257 3.422041 -0.695068 1.068779 0.000000 0.000000 0.000000 -7.834822 -47.010513 -80.508988 64.614585 -57.418384 38.206170 47.126932 -0.442067 -23.487231 0.000000 0.000000 0.000000 -7.125000 0.000000 0.000000 22.459055 61.132266 -9.084698 0.000000 0.000000 0.000000 -21.124759 -38.663724 41.411604 -90.535713 -59.998865 -60.463927 -57.703734 24.132415 6.777979 0.000000 0.000000 0.000000 7.125000 0.000000 0.000000 -27.265448 40.809740 -3.079496
0.002773 18.161377 5.261372 4.195785 -18.793535 -2.747226 0.000000 0.000000 0.000000 -17.034119 2.224156 -11.526489 3.633000 11.655248 34.523152 1.060081 3.229376 -20.863676 0.524835 -4.641792 -12.889746 0.000000 0.000000 0.000000 4.729612 15.737823 -14.194038 -3.983421 -12.138307 36.222994 -1.444413 -8.118009 -26.931717 -0.014179 0.743537 -2.043451 -1.116726 -0.918317 14.973313 2.143691 -1.364466 6.457532 3.092349 -0.755967 -1.482483 -6.061426 -2.297739 -13.888347 8.367793 -2.342547 -2.972672 3.744888 -0.928802 1.697952 0.000000 0.000000 0.000000 -1.124767 -39.116806 -75.537187 70.830339 -58.564738 43.478574 45.513954 -1.610471 -22.023769 0.000000 0.000000 0.000000 -7.125000 0.000000 0.000000 19.774873 58.868200 -6.874131 0.000000 0.000000 0.000000 -24.141302 -37.037511 40.722554 -92.005538 -59.984652 -61.736723 -57.419773 24.267940 4.448690 0.000000 0.000000 0.000000 7.125000 0.000000 0.000000 -25.769692 36.936227 -5.574568
-0.407960 18.200639 5.364100 3.230267 -9.929374 -3.831487 0.000000 0.000000 0.000000 -15.005924 -2.023220 -8.145912 3.226018 11.052231 32.456307 0.926656 0.628809 -18.430209 0.555009 -4.771829 -13.259018 0.000000 0.000000 0.000000 8.350761 14.960239 -8.133015 -3.711152 -11.765671 34.908145 -1.304313 -7.949030 -25.776824 -0.081131 1.821931 -5.014242 -1.821601 0.100245 12.420950 1.288305 -0.065836 5.342367 2.375433 -0.080354 -1.364210 -6.646007 -2.343495 -13.383604 8.278861 -2.411794 -0.540670 3.455983 -0.930861 2.175138 0.000000 0.000000 0.000000 6.708457 -32.618746 -69.660659 71.916767 -58.727592 44.406375 43.039879 -8.054457 -21.200121 0.000000 0.000000 0.000000 -7.125000 0.000000 0.000000 16.402809 57.173402 -4.982656 0.000000 0.000000 0.000000 -28.696760 -37.664374 36.553763 -93.123992 -59.963092 -62.705125 -58.398836 21.888929 0.776766 0.000000 0.000000 0.000000 7.125000 0.000000 0.000000 -24.771091 30.747484 -9.437817
-0.861433 18.226348 5.472474 2.186111 -1.823279 -4.142997 0.000000 0.000000 0.000000 -12.765739 -6.788792 -6.144281 2.869977 10.481532 30.550605 0.748378 -1.912429 -15.806785 0.526122 -4.646179 -12.902475 0.000000 0.000000 0.000000 11.905683 12.507967 -5.220680 -3.709931 -11.764082 34.902385 -0.579999 -15.615243 -27.187537 -0.079446 1.817895 -5.002740 -2.171657 1.196039 10.416388 0.200261 1.377952 4.281817 1.270511 0.665632 -1.439003 -6.661169 -1.850063 -12.843235 8.083399 -1.817964 0.674638 3.434639 -0.638459 2.407808 0.000000 0.000000 0.000000 12.733312 -27.975397 -60.988283 72.487063 -58.808770 44.894022 41.550052 -12.398819 -23.112072 0.000000 0.000000 0.000000 -7.125000 0.000000 0.000000 14.721184 59.066240 -5.128834 0.000000 0.000000 0.000000 -36.137847 -39.964048 31.958788 -93.551155 -59.952299 -63.074857 -61.996084 37.040610 2.074105 0.000000 0.000000 0.000000 7.125000 0.000000 0.000000 -28.168678 33.149220 -9.163130
-1.222777 18.268827 5.628988 0.069124 5.452280 -4.078134 0.000000 0.000000 0.000000 -9.268914 -9.900629 -6.401651 2.701880 10.196016 29.613904 0.527022 -4.927166 -12.922372 0.415590 -4.137782 -11.464616 0.000000 0.000000 0.000000 15.307156 7.294399 -3.017081 -3.171828 -10.967865 32.171837 -0.584811 -17.214188 -29.030099 -0.095651 1.993753 -5.488435 -1.212701 1.771109 8.537407 -0.576831 2.251974 3.544836 -0.124170 1.121440 -1.138230 -6.449544 -1.373530 -12.818222 7.854651 -1.230565 1.374952 3.365897 -0.346754 2.566465 0.000000 0.000000 0.000000 17.142025 -24.342354 -51.410147 77.091911 -59.360671 48.845300 41.169581 -9.922574 -23.809959 0.000000 0.000000 0.000000 -7.125000 0.000000 0.000000 14.274386 59.788290 -5.217023 0.000000 0.000000 0.000000 -50.327422 -43.548055 30.962571 -92.482657 -59.976658 -62.149880 -60.964010 39.140112 -1.567652 0.000000 0.000000 0.000000 7.125000 0.000000 0.000000 -25.485649 26.385897 -12.730268
-1.401841 18.325684 5.810159 -1.640332 11.326677 -3.965558 0.000000 0.000000 0.000000 -7.227642 -10.320466 -8.174191 2.686679 10.169664 29.527879 0.411204 -5.516671 -11.477113 0.373176 -3.923297 -10.861101 0.000000 0.000000 0.000000 18.488523 4.865248 -0.477731 -2.588749 -9.997309 28.968058 -0.555621 -20.175955 -32.287974 -0.021087 0.935702 -2.571914 -0.447792 2.491579 6.719660 -1.623223 3.275596 2.898796 -1.651294 1.647550 -0.703762 -6.784282 -2.055474 -13.207934 9.454606 -2.202969 2.225554 3.856990 -0.746942 2.987564 0.000000 0.000000 0.000000 20.788896 -19.439184 -43.495243 77.044012 -59.356116 48.804032 40.250562 -5.937729 -23.251520 0.000000 0.000000 0.000000 -7.125000 0.000000 0.000000 13.066223 58.878605 -4.480535 0.000000 0.000000 0.000000 -65.677974 -45.536626 24.990825 -89.234912 -59.997189 -59.337391 -61.472089 36.457081 -4.877046 0.000000 0.000000 0.000000 7.125000 0.000000 0.000000 -24.347124 20.120065 -15.975118
-1.323864 18.380190 6.023930 -2.154647 15.670382 -3.670290 0.000000 0.000000 0.000000 -7.614604 -10.061086 -9.838832 2.807776 10.377246 30.207161 0.437416 -4.913145 -11.780169 0.357612 -3.841574 -10.631409 0.000000 0.000000 0.000000 19.581687 3.428879 2.276344 -1.995207 -8.855936 25.345832 -0.329447 -23.204099 -34.653126 -0.006629 0.526381 -1.446397 -0.509601 3.193091 5.364570 -2.650820 4.200670 1.883245 -2.688267 2.111020 -0.899708 -7.357384 -2.847417 -13.337369 10.766049 -3.301462 2.981073 4.285051 -1.223157 3.368158 0.000000 0.000000 0.000000 23.406657 -12.717619 -36.753219 65.967848 -57.697719 39.348735 37.487457 -5.047560 -21.855975 0.000000 0.000000 0.000000 -7.125000 0.000000 0.000000 9.709355 56.532382 -2.764086 0.000000 0.000000 0.000000 -78.547190 -46.372021 12.444874 -79.652274 -59.590301 -51.051035 -61.517440 32.434371 -7.377042 0.000000 0.000000 0.000000 7.125000 0.000000 0.000000 -23.404361 15.488064 -17.884585
-1.057653 18.407357 6.206208 -2.926680 19.196053 -3.098456 0.000000 0.000000 0.000000 -7.435101 -12.955795 -9.442297 2.636041 10.081090 29.239852 0.353372 -7.127430 -10.975939 0.278948 -3.396950 -9.385887 0.000000 0.000000 0.000000 20.403048 3.005115 4.002277 -1.685433 -8.177530 23.254620 -0.127099 -25.836199 -36.952066 -0.009015 0.613899 -1.686975 -0.313604 4.235482 4.292044 -3.457235 5.592742 0.964291 -3.657202 2.804677 -1.088872 -7.122106 -3.674028 -12.843921 11.760999 -4.351647 0.871455 4.484550 -1.735910 2.781419 0.000000 0.000000 0.000000 25.531876 -7.116921 -31.910470 48.652286 -52.434122 25.102620 32.197377 -3.721889 -23.236994 0.000000 0.000000 0.000000 -7.125000 0.000000 0.000000 3.444322 56.853316 -1.014771 0.000000 0.000000 0.000000 -90.030562 -43.659898 -3.624595 -66.851008 -57.873199 -40.095688 -58.519342 33.899067 -5.362113 0.000000 0.000000 0.000000 7.125000 0.000000 0.000000 -22.355096 20.050423 -14.470135
